<svg width="100%" height="100%" viewBox="0 0 408 244" fill="none" xmlns="http://www.w3.org/2000/svg">
<path d="M0 5.99999C0 2.68628 2.68629 0 6 0H402C405.314 0 408 2.68629 408 6V244H0V5.99999Z" fill="#424242"/>
<path d="M197.257 81.3896H191.909C191.494 81.3896 191.12 81.6233 190.961 81.9817C190.802 82.3401 190.89 82.7525 191.183 83.0268L197.884 89.2898L197.257 81.3896Z" fill="white"/>
<path d="M180.121 105.693L166.173 118.732H161L178.042 102.802C178.646 103.824 179.341 104.79 180.121 105.693Z" fill="white"/>
<path d="M198.177 108.13C192.258 108.13 184.621 103.262 184.234 97.0137L194.574 87.3488L195.19 86.7722C194.744 85.7532 194.497 84.6383 194.497 83.4696C194.497 83.0899 194.522 82.7153 194.573 82.3482C195.161 78.0624 199.079 74.7509 203.824 74.7509C211.568 74.7509 217.517 81.5299 218.425 90.6081C218.425 90.6079 212.069 108.13 198.177 108.13Z" fill="white"/>
<path d="M218.425 90.6078C218.506 91.4045 218.547 92.2189 218.547 93.0474C218.547 104.197 208.879 113.234 196.952 113.234C190.147 113.234 184.078 110.292 180.121 105.693C179.341 104.79 178.646 103.824 178.042 102.802L184.234 97.0138C186.012 101.987 191.033 105.573 196.952 105.573C204.356 105.573 210.356 99.9634 210.356 93.0424C210.356 92.21 210.27 91.3969 210.103 90.6079L218.425 90.6078Z" fill="white"/>
<path d="M201.586 80.6553C202.585 80.6553 203.396 81.4135 203.396 82.3482C203.396 83.2828 202.585 84.0398 201.586 84.0398C200.586 84.0398 199.775 83.2828 199.775 82.3482C199.775 81.4135 200.586 80.6553 201.586 80.6553Z" fill="black"/>
<path d="M152.548 157.537C153.329 157.537 153.965 157.438 154.455 157.24C154.957 157.042 155.348 156.785 155.628 156.47C155.908 156.155 156.1 155.799 156.205 155.402C156.31 155.006 156.363 154.603 156.363 154.195C156.363 153.728 156.298 153.308 156.17 152.935C156.053 152.562 155.843 152.247 155.54 151.99C155.248 151.733 154.858 151.535 154.368 151.395C153.878 151.255 153.259 151.185 152.513 151.185H148.383V157.537H152.548ZM148.383 140.93V147.23H151.463C152.116 147.23 152.705 147.183 153.23 147.09C153.755 146.997 154.198 146.833 154.56 146.6C154.933 146.367 155.213 146.046 155.4 145.637C155.598 145.229 155.698 144.716 155.698 144.097C155.698 143.491 155.622 142.989 155.47 142.592C155.318 142.184 155.085 141.857 154.77 141.612C154.455 141.367 154.053 141.192 153.563 141.087C153.084 140.982 152.513 140.93 151.848 140.93H148.383ZM151.848 136.502C153.609 136.502 155.108 136.666 156.345 136.992C157.582 137.319 158.591 137.78 159.372 138.375C160.154 138.97 160.72 139.693 161.07 140.545C161.432 141.397 161.613 142.347 161.613 143.397C161.613 143.969 161.531 144.523 161.368 145.06C161.204 145.585 160.948 146.081 160.598 146.547C160.248 147.002 159.798 147.422 159.25 147.807C158.702 148.192 158.043 148.525 157.273 148.805C158.953 149.213 160.195 149.872 161 150.782C161.805 151.692 162.208 152.871 162.208 154.317C162.208 155.402 161.998 156.412 161.578 157.345C161.158 158.278 160.539 159.095 159.723 159.795C158.918 160.483 157.92 161.026 156.73 161.423C155.54 161.808 154.181 162 152.653 162H142.468V136.502H151.848ZM177.559 143.852V162H172.134V143.852H177.559ZM178.119 138.882C178.119 139.314 178.031 139.722 177.856 140.107C177.681 140.481 177.442 140.813 177.139 141.105C176.835 141.385 176.48 141.612 176.071 141.787C175.675 141.951 175.249 142.032 174.794 142.032C174.35 142.032 173.936 141.951 173.551 141.787C173.166 141.612 172.822 141.385 172.519 141.105C172.227 140.813 171.994 140.481 171.819 140.107C171.655 139.722 171.574 139.314 171.574 138.882C171.574 138.439 171.655 138.025 171.819 137.64C171.994 137.255 172.227 136.917 172.519 136.625C172.822 136.333 173.166 136.106 173.551 135.942C173.936 135.779 174.35 135.697 174.794 135.697C175.249 135.697 175.675 135.779 176.071 135.942C176.48 136.106 176.835 136.333 177.139 136.625C177.442 136.917 177.681 137.255 177.856 137.64C178.031 138.025 178.119 138.439 178.119 138.882ZM193.417 146.652C193.977 145.672 194.619 144.902 195.342 144.342C196.077 143.782 196.917 143.502 197.862 143.502C198.679 143.502 199.344 143.695 199.857 144.08L199.507 148.07C199.449 148.327 199.35 148.502 199.21 148.595C199.082 148.688 198.901 148.735 198.667 148.735C198.574 148.735 198.452 148.729 198.3 148.717C198.148 148.706 197.991 148.694 197.827 148.682C197.664 148.659 197.495 148.642 197.32 148.63C197.157 148.607 197.005 148.595 196.865 148.595C196.072 148.595 195.436 148.805 194.957 149.225C194.491 149.645 194.094 150.228 193.767 150.975V162H188.342V143.852H191.562C191.831 143.852 192.052 143.876 192.227 143.923C192.414 143.969 192.566 144.045 192.682 144.15C192.811 144.243 192.904 144.372 192.962 144.535C193.032 144.698 193.091 144.897 193.137 145.13L193.417 146.652ZM219.441 148.717C219.032 148.262 218.589 147.947 218.111 147.772C217.632 147.586 217.131 147.492 216.606 147.492C216.104 147.492 215.643 147.592 215.223 147.79C214.803 147.988 214.436 148.309 214.121 148.752C213.817 149.184 213.578 149.75 213.403 150.45C213.228 151.15 213.141 151.996 213.141 152.987C213.141 153.944 213.211 154.749 213.351 155.402C213.491 156.056 213.683 156.587 213.928 156.995C214.185 157.392 214.488 157.677 214.838 157.852C215.188 158.027 215.579 158.115 216.011 158.115C216.407 158.115 216.763 158.08 217.078 158.01C217.405 157.928 217.702 157.817 217.971 157.677C218.239 157.537 218.49 157.362 218.723 157.152C218.968 156.931 219.207 156.68 219.441 156.4V148.717ZM224.866 135.802V162H221.506C220.829 162 220.386 161.697 220.176 161.09L219.756 159.707C219.394 160.092 219.015 160.442 218.618 160.757C218.222 161.072 217.79 161.347 217.323 161.58C216.868 161.802 216.372 161.971 215.836 162.088C215.311 162.216 214.739 162.28 214.121 162.28C213.176 162.28 212.301 162.07 211.496 161.65C210.691 161.23 209.997 160.623 209.413 159.83C208.83 159.037 208.369 158.068 208.031 156.925C207.704 155.77 207.541 154.457 207.541 152.987C207.541 151.634 207.727 150.38 208.101 149.225C208.474 148.058 208.999 147.055 209.676 146.215C210.364 145.363 211.187 144.698 212.143 144.22C213.1 143.742 214.156 143.502 215.311 143.502C216.256 143.502 217.049 143.637 217.691 143.905C218.332 144.173 218.916 144.535 219.441 144.99V135.802H224.866ZM241.078 143.852V162H235.653V143.852H241.078ZM241.638 138.882C241.638 139.314 241.551 139.722 241.376 140.107C241.201 140.481 240.962 140.813 240.658 141.105C240.355 141.385 239.999 141.612 239.591 141.787C239.194 141.951 238.768 142.032 238.313 142.032C237.87 142.032 237.456 141.951 237.071 141.787C236.686 141.612 236.342 141.385 236.038 141.105C235.747 140.813 235.513 140.481 235.338 140.107C235.175 139.722 235.093 139.314 235.093 138.882C235.093 138.439 235.175 138.025 235.338 137.64C235.513 137.255 235.747 136.917 236.038 136.625C236.342 136.333 236.686 136.106 237.071 135.942C237.456 135.779 237.87 135.697 238.313 135.697C238.768 135.697 239.194 135.779 239.591 135.942C239.999 136.106 240.355 136.333 240.658 136.625C240.962 136.917 241.201 137.255 241.376 137.64C241.551 138.025 241.638 138.439 241.638 138.882ZM263.149 150.747C263.149 150.316 263.091 149.896 262.974 149.487C262.869 149.079 262.689 148.717 262.432 148.402C262.187 148.076 261.86 147.813 261.452 147.615C261.044 147.417 260.548 147.317 259.964 147.317C258.938 147.317 258.133 147.615 257.549 148.21C256.966 148.793 256.581 149.639 256.394 150.747H263.149ZM256.324 153.897C256.499 155.414 256.96 156.517 257.707 157.205C258.454 157.882 259.416 158.22 260.594 158.22C261.224 158.22 261.767 158.144 262.222 157.992C262.677 157.841 263.079 157.672 263.429 157.485C263.791 157.298 264.118 157.129 264.409 156.977C264.713 156.826 265.028 156.75 265.354 156.75C265.786 156.75 266.113 156.907 266.334 157.222L267.909 159.165C267.349 159.807 266.743 160.332 266.089 160.74C265.448 161.137 264.783 161.452 264.094 161.685C263.418 161.907 262.735 162.058 262.047 162.14C261.37 162.233 260.723 162.28 260.104 162.28C258.833 162.28 257.637 162.076 256.517 161.667C255.409 161.247 254.434 160.629 253.594 159.812C252.766 158.996 252.107 157.981 251.617 156.767C251.139 155.554 250.899 154.142 250.899 152.532C250.899 151.319 251.104 150.17 251.512 149.085C251.932 148 252.527 147.049 253.297 146.232C254.079 145.416 255.018 144.768 256.114 144.29C257.223 143.812 258.471 143.572 259.859 143.572C261.061 143.572 262.158 143.759 263.149 144.132C264.153 144.506 265.01 145.048 265.722 145.76C266.445 146.472 267.005 147.347 267.402 148.385C267.81 149.412 268.014 150.578 268.014 151.885C268.014 152.293 267.997 152.626 267.962 152.882C267.927 153.139 267.863 153.343 267.769 153.495C267.676 153.647 267.548 153.752 267.384 153.81C267.233 153.868 267.034 153.897 266.789 153.897H256.324Z" fill="white"/>
<path d="M147.339 106.403C147.748 107.934 149.013 109.265 150.495 110.172C150.864 110.406 151.24 110.614 151.621 110.803C149.66 110.278 148.358 109.647 147.585 109.155C147.212 108.903 146.938 108.699 146.782 108.554C146.614 108.407 146.528 108.333 146.528 108.333C146.528 108.333 146.573 108.418 146.668 108.578C146.749 108.745 146.925 108.984 147.196 109.285C147.736 109.888 148.866 110.727 150.774 111.514C152.673 112.31 155.301 113.012 158.392 113.637C161.507 114.222 165.077 114.76 168.995 115.165C172.921 115.586 177.125 115.979 181.624 116.325C186.275 116.642 191.068 116.805 196.059 116.872C201.045 116.937 206.191 116.922 211.422 116.805C216.638 116.694 221.96 116.449 227.261 116.089C232.554 115.716 237.872 115.259 243.022 114.48C245.597 114.09 248.139 113.641 250.612 113.082C253.084 112.514 255.483 111.854 257.69 110.948C258.791 110.497 259.815 109.97 260.691 109.365C261.104 109.109 261.665 108.628 261.882 108.405C262.267 108.053 262.562 107.667 262.77 107.264C263.204 106.453 263.176 105.558 262.754 104.786C262.328 104.014 261.624 103.357 260.809 102.799C259.188 101.687 257.268 100.93 255.361 100.286C253.445 99.651 251.521 99.1545 249.646 98.7273C245.896 97.8752 242.297 97.3873 239.117 97.0404C235.919 96.6913 233.07 96.5655 230.749 96.5265C228.428 96.4875 226.577 96.5807 225.366 96.6718C224.129 96.7693 223.503 96.8604 223.503 96.8604C223.503 96.8604 224.166 96.8301 225.39 96.8366C226.614 96.8366 228.403 96.9103 230.659 97.0989C232.906 97.2811 235.592 97.628 238.593 98.1224C241.585 98.6189 244.897 99.328 248.27 100.254C249.957 100.724 251.652 101.266 253.256 101.904C254.833 102.537 256.347 103.276 257.412 104.1C257.94 104.51 258.316 104.944 258.484 105.36C258.644 105.774 258.603 106.171 258.341 106.562C258.226 106.759 258.046 106.958 257.796 107.149L257.551 107.355C257.465 107.409 257.428 107.444 257.354 107.49L257.178 107.62L256.929 107.763C256.298 108.151 255.5 108.506 254.636 108.845C252.9 109.519 250.8 110.063 248.585 110.517C248.258 110.584 247.914 110.651 247.57 110.716C248.172 110.438 248.905 110.079 249.633 109.569C250.145 109.198 250.657 108.736 250.96 108.162C251.267 107.585 251.218 106.867 250.706 106.204C249.654 104.855 247.284 103.868 244.701 103.088C242.089 102.299 239.121 101.655 235.911 101.128C235.121 100.993 234.29 100.863 233.467 100.74C232.616 100.627 231.752 100.501 230.872 100.397C229.128 100.184 227.351 100.041 225.529 99.9004C221.902 99.6402 218.161 99.4884 214.358 99.4039C210.546 99.3215 206.686 99.315 202.821 99.3995C198.961 99.4776 195.092 99.625 191.298 99.8961C189.406 100.031 187.535 100.184 185.632 100.393C184.674 100.477 183.818 100.599 182.926 100.716C182.029 100.831 181.137 100.941 180.257 101.054C176.638 101.566 173.142 102.303 170.321 103.491C168.913 104.081 167.677 104.783 166.792 105.588C165.896 106.386 165.388 107.307 165.425 108.196C165.466 109.088 166.043 109.909 166.862 110.545C167.677 111.193 168.704 111.674 169.724 112.043C171.689 112.724 173.621 113.032 175.23 113.218C173.297 113.127 171.422 113.038 169.642 112.932C169.138 112.902 168.655 112.876 168.156 112.843C168.074 112.83 167.988 112.817 167.894 112.798C167.398 112.713 166.698 112.527 165.937 112.223C165.184 111.906 164.348 111.475 163.583 110.916C162.834 110.35 162.101 109.675 161.638 108.895C161.18 108.118 160.963 107.26 161.155 106.401C161.376 105.545 161.99 104.701 163.055 103.929C163.309 103.734 163.612 103.55 163.915 103.363C164.062 103.268 164.238 103.183 164.402 103.09L164.647 102.956L164.676 102.938L164.705 102.925L164.86 102.851L165.482 102.557C165.687 102.47 165.843 102.427 166.023 102.351C166.33 102.223 166.784 102.08 167.194 101.939C168.893 101.379 170.89 100.937 172.933 100.538C174.992 100.154 177.121 99.8158 179.25 99.5318C181.383 99.2391 183.515 98.9897 185.595 98.7664C187.671 98.5409 189.697 98.3522 191.629 98.1744C193.557 98.0031 195.387 97.8297 197.086 97.7039C198.785 97.5825 200.345 97.4372 201.737 97.3483C203.124 97.2594 204.336 97.1575 205.339 97.1054C206.338 97.0534 207.132 96.9905 207.668 96.9753C208.213 96.9558 208.5 96.9428 208.5 96.9428C208.5 96.9428 207.378 96.7672 205.343 96.6219C204.328 96.5568 203.096 96.4679 201.675 96.4159C200.259 96.3682 198.658 96.2988 196.91 96.2945C195.158 96.2858 193.258 96.2706 191.253 96.3248C189.247 96.3682 187.13 96.4484 184.94 96.572C182.754 96.7021 180.494 96.8821 178.206 97.1271C175.934 97.3786 173.613 97.6844 171.32 98.105C169.028 98.5235 166.756 99.0331 164.615 99.7573C164.078 99.9459 163.562 100.115 163.01 100.36C162.752 100.475 162.437 100.596 162.232 100.701L161.638 101.004L161.487 101.08L161.331 101.162L161.249 101.21L160.934 101.399C160.73 101.529 160.509 101.644 160.324 101.78C159.939 102.049 159.567 102.316 159.248 102.604C157.897 103.734 157.197 105.068 157.213 106.303C157.213 106.921 157.397 107.518 157.684 108.064C157.958 108.613 158.359 109.111 158.834 109.556C159.776 110.449 160.91 111.158 162.089 111.674C163.092 112.13 164.103 112.442 165.02 112.635C162.948 112.496 160.996 112.334 159.227 112.125C157.749 111.965 156.398 111.776 155.162 111.56C154.376 111.085 153.349 110.378 152.501 109.467C151.662 108.543 151.027 107.433 150.941 106.212C150.892 105.603 150.962 104.97 151.15 104.326C151.195 104.166 151.244 104.007 151.306 103.84L151.392 103.63L151.519 103.363L151.641 103.097L151.768 102.873C151.854 102.734 151.924 102.591 152.047 102.437C152.477 101.835 153.029 101.249 153.701 100.707C154.364 100.165 155.138 99.6597 155.964 99.1957C157.614 98.272 159.461 97.5109 161.143 96.9168C161.99 96.6284 162.772 96.3487 163.501 96.1384C164.23 95.9215 164.864 95.722 165.405 95.5724C166.477 95.2689 167.124 95.1084 167.124 95.1084C167.124 95.1084 166.408 95.1084 165.175 95.2081C164.565 95.2667 163.812 95.3274 162.973 95.4467C162.134 95.5659 161.176 95.7069 160.173 95.9215C159.17 96.134 158.081 96.3769 156.984 96.7065C155.883 97.0317 154.765 97.4307 153.684 97.9055C152.612 98.3782 151.576 98.9377 150.667 99.5773C149.762 100.217 148.981 100.935 148.416 101.698C148.264 101.882 148.141 102.095 148.014 102.301L147.834 102.604L147.711 102.871L147.589 103.14L147.523 103.318L147.47 103.465C147.4 103.66 147.347 103.858 147.298 104.053C147.126 104.842 147.126 105.644 147.339 106.403ZM179.458 113.344C178.582 113.259 177.297 113.121 175.741 112.837C174.202 112.557 172.348 112.13 170.69 111.375C169.867 110.998 169.093 110.545 168.561 110.003C168.029 109.465 167.746 108.845 167.845 108.214C167.992 106.943 169.74 105.705 172.217 104.846C174.697 103.977 177.805 103.381 181.133 103.036C181.554 102.992 181.968 102.953 182.398 102.917C182.848 102.875 183.307 102.838 183.761 102.797C184.653 102.73 185.579 102.626 186.434 102.576C188.162 102.446 189.988 102.357 191.817 102.262C195.485 102.097 199.248 102.01 203.006 101.945C206.772 101.893 210.538 101.88 214.243 101.921C217.944 101.962 221.587 102.034 225.075 102.179C225.955 102.225 226.819 102.264 227.671 102.307C228.518 102.359 229.345 102.416 230.168 102.468C230.991 102.524 231.789 102.602 232.583 102.674C233.398 102.76 234.188 102.851 234.957 102.949C238.077 103.357 240.983 103.795 243.472 104.376C245.945 104.963 248.086 105.681 249.056 106.59C249.535 107.043 249.687 107.533 249.605 107.995C249.519 108.47 249.204 108.908 248.835 109.283C248.123 109.987 247.337 110.506 246.756 110.863C245.094 111.167 243.37 111.425 241.606 111.653C236.742 112.271 231.682 112.741 226.557 113.053C221.415 113.372 216.241 113.55 211.14 113.7C206.039 113.828 201.004 113.882 196.14 113.86C191.285 113.83 186.553 113.784 182.234 113.554C181.604 113.52 180.985 113.491 180.367 113.457C180.65 113.457 180.805 113.452 180.805 113.452C180.805 113.452 180.339 113.433 179.458 113.344Z" fill="white"/>
<path d="M269.925 104.65C269.708 103.509 268.894 102.38 267.719 101.387C266.536 100.389 265.017 99.5111 263.318 98.7456C259.896 97.2213 255.868 96.0916 251.663 95.1788C247.455 94.2637 243.005 93.6284 238.526 93.1319C234.036 92.644 229.516 92.3079 225.038 92.1518C222.798 92.0716 220.567 92.0173 218.377 92.0065C216.211 92.0043 214.054 92.0022 211.95 92C207.733 92.0347 203.648 92.1084 199.755 92.2255C195.878 92.3751 192.202 92.5811 188.832 92.8825C185.471 93.1991 182.413 93.5764 179.773 94.0295C177.145 94.4849 174.897 94.9359 173.088 95.3522C171.274 95.7577 169.87 96.109 168.925 96.3497C167.979 96.5947 167.471 96.7204 167.471 96.7204C167.471 96.7204 169.629 96.393 173.403 95.8141C175.294 95.543 177.583 95.2243 180.231 94.9316C182.88 94.6519 185.881 94.3917 189.189 94.2485C192.488 94.0859 196.087 93.9949 199.902 93.9732C203.725 93.932 207.762 93.9472 211.942 93.9884C214.038 94.0035 216.162 94.0209 218.32 94.0339C220.444 94.0599 222.598 94.1163 224.759 94.2052C229.082 94.3938 233.462 94.6627 237.773 95.1202C242.088 95.5669 246.313 96.1957 250.321 96.9828C254.32 97.7851 258.09 98.7912 261.185 100.101C264.272 101.389 266.618 103.037 267.084 104.83C267.6 106.623 266.401 108.386 264.505 109.724C262.614 111.083 260.281 112.124 258.107 112.946C255.908 113.763 253.862 114.392 252.122 114.867C250.386 115.344 248.99 115.687 248.024 115.904C247.066 116.129 246.538 116.229 246.538 116.229C246.538 116.229 247.091 116.166 248.106 116.005C249.113 115.849 250.599 115.609 252.449 115.229C254.283 114.843 256.506 114.345 258.905 113.592C261.288 112.835 263.944 111.884 266.245 110.439C267.383 109.72 268.427 108.872 269.127 107.885C269.831 106.907 270.159 105.791 269.925 104.65Z" fill="white"/>
<path d="M145.255 114.405C148.088 115.708 151.482 116.707 155.064 117.523C158.658 118.349 162.478 118.967 166.375 119.496C170.276 120.034 174.309 120.424 178.353 120.712C182.398 120.983 186.463 121.163 190.462 121.22C194.466 121.283 198.396 121.241 202.187 121.126C209.773 120.901 216.777 120.344 222.697 119.7C228.62 119.056 233.459 118.318 236.8 117.744C238.466 117.464 239.772 117.2 240.639 117.028C241.52 116.851 241.982 116.746 241.982 116.746C241.982 116.746 239.997 116.905 236.529 117.143C233.054 117.369 228.113 117.681 222.201 117.92C216.282 118.162 209.371 118.373 202.015 118.368C198.335 118.368 194.54 118.316 190.692 118.206C186.852 118.073 182.959 117.9 179.102 117.62C175.238 117.369 171.406 117.009 167.681 116.564C166.743 116.465 165.826 116.339 164.909 116.213L163.534 116.033L162.879 115.946L162.183 115.844C161.229 115.71 160.398 115.569 159.534 115.428C158.666 115.281 157.811 115.129 156.971 114.971C153.639 114.318 150.524 113.553 147.998 112.581C145.456 111.621 143.556 110.447 142.635 109.162C141.702 107.876 141.722 106.51 142.197 105.328C142.693 104.146 143.491 103.125 144.281 102.321C145.075 101.518 145.8 100.9 146.336 100.495C146.868 100.087 147.179 99.877 147.179 99.877C147.179 99.877 146.778 100.037 146.086 100.378C145.407 100.725 144.396 101.236 143.307 101.989C142.222 102.739 140.969 103.708 140.06 104.996C139.151 106.263 138.566 107.919 139.405 109.68C140.204 111.451 142.422 113.123 145.255 114.405Z" fill="white"/>
<path d="M254.169 116.878C251.917 117.434 249.33 118 246.501 118.589C243.673 119.177 240.545 119.725 237.229 120.276C233.905 120.823 230.364 121.313 226.675 121.733C222.987 122.163 219.143 122.527 215.221 122.8C211.308 123.084 207.263 123.264 203.3 123.353C199.235 123.438 195.244 123.446 191.273 123.366C187.318 123.29 183.437 123.125 179.7 122.874C175.966 122.631 172.38 122.297 169.007 121.911C165.638 121.514 162.498 121.037 159.632 120.539C156.771 120.033 154.196 119.48 151.948 118.945C149.713 118.396 147.809 117.861 146.27 117.386C143.2 116.434 141.624 115.714 141.624 115.714C141.624 115.714 142.864 116.603 145.668 117.837C147.064 118.457 148.837 119.155 150.998 119.871C153.139 120.595 155.682 121.315 158.539 121.996C161.388 122.69 164.594 123.312 168.033 123.863C171.475 124.422 175.18 124.877 179.045 125.218C182.913 125.565 186.946 125.797 191.052 125.92C195.141 126.022 199.354 126.031 203.476 125.92C207.705 125.818 211.827 125.573 215.897 125.233C219.954 124.884 223.912 124.429 227.683 123.882C231.453 123.336 235.031 122.69 238.367 122.026C241.704 121.354 244.77 120.599 247.578 119.875C250.374 119.151 252.839 118.383 254.996 117.694C257.149 117.009 258.955 116.334 260.42 115.775C263.347 114.645 264.833 113.895 264.833 113.895C264.833 113.895 263.098 114.483 259.941 115.365C258.373 115.82 256.417 116.323 254.169 116.878Z" fill="white"/>
</svg>
