<svg width="40" height="30" viewBox="0 0 40 30" fill="none" xmlns="http://www.w3.org/2000/svg">
<path d="M19.848 0.462112C17.0886 0.49546 14.4895 1.4425 12.5295 3.12875C10.5697 4.81487 9.47727 7.04351 9.45352 9.40413C9.42953 11.7932 10.487 14.0525 12.4312 15.7659C14.0373 17.1814 14.9219 19.0108 14.9219 20.917V25.6561C14.9219 28.0513 17.1999 30 20 30C22.8001 30 25.0781 28.0513 25.0781 25.6561V20.9167C25.0781 18.9956 25.9485 17.1788 27.529 15.8009C29.4751 14.1041 30.5469 11.8605 30.5469 9.48326C30.5469 7.04932 29.4309 4.76768 27.4046 3.05865C25.3788 1.34988 22.6958 0.428564 19.848 0.462112V0.462112ZM17.2656 21.9804H22.7344V24.0216H17.2656V21.9804ZM20 27.9951C18.6397 27.9951 17.5085 27.1408 17.3003 26.0265H22.6998C22.4915 27.1408 21.3603 27.9951 20 27.9951ZM25.856 14.3967C24.103 15.9252 23.0361 17.8787 22.7898 19.9755H17.2089C16.9587 17.891 15.8817 15.9283 14.113 14.3695C12.6009 13.037 11.7786 11.2797 11.7972 9.42137C11.8352 5.64001 15.4616 2.5202 19.8811 2.46687C19.9209 2.4664 19.9608 2.46614 20.0005 2.46614C22.1709 2.46614 24.2118 3.18121 25.7591 4.48626C27.3352 5.81551 28.2031 7.59017 28.2031 9.48326C28.2031 11.3321 27.3696 13.0771 25.856 14.3967Z" fill="#FF697C"/>
<path d="M0 8.41031H5.93781V10.4152H0V8.41031Z" fill="#FF697C"/>
<path d="M2.05223 17.1078L7.19444 14.5681L8.36632 16.3044L3.22411 18.8441L2.05223 17.1078Z" fill="#FF697C"/>
<path d="M31.5505 16.4276L32.7224 14.6913L37.8646 17.231L36.6928 18.9673L31.5505 16.4276Z" fill="#FF697C"/>
<path d="M34.0622 8.55125H40V10.5561H34.0622V8.55125Z" fill="#FF697C"/>
<path d="M31.6327 2.6617L36.7749 0.122L37.9468 1.85824L32.8046 4.39793L31.6327 2.6617Z" fill="#FF697C"/>
<path d="M2.13469 1.73624L3.30656 2.22689e-06L8.44871 2.53966L7.27683 4.2759L2.13469 1.73624Z" fill="#FF697C"/>
</svg>
