<svg width="25" height="25" viewBox="0 0 25 25" fill="none" xmlns="http://www.w3.org/2000/svg">
<path d="M22.5 0H2.5C1.125 0 0 1.125 0 2.5V22.5C0 23.875 1.125 25 2.5 25H22.5C23.875 25 25 23.875 25 22.5V2.5C25 1.125 23.875 0 22.5 0ZM7.5 21.25H3.75V10H7.5V21.25ZM5.625 7.875C4.375 7.875 3.375 6.875 3.375 5.625C3.375 4.375 4.375 3.375 5.625 3.375C6.875 3.375 7.875 4.375 7.875 5.625C7.875 6.875 6.875 7.875 5.625 7.875ZM21.25 21.25H17.5V14.625C17.5 13.625 16.625 12.75 15.625 12.75C14.625 12.75 13.75 13.625 13.75 14.625V21.25H10V10H13.75V11.5C14.375 10.5 15.75 9.75 16.875 9.75C19.25 9.75 21.25 11.75 21.25 14.125V21.25Z" fill="#FF697C"/>
</svg>
