<svg width="100%" height="100%" viewBox="0 0 408 244" fill="none" xmlns="http://www.w3.org/2000/svg">
<path d="M0 5.99999C0 2.68628 2.68629 0 6 0H402C405.314 0 408 2.68629 408 6V244H0V5.99999Z" fill="#001F4D"/>
<path d="M164.79 115.192H157.615V136H151.7V115.192H144.525V110.502H164.79V115.192ZM199.24 123.242C199.24 125.086 198.919 126.801 198.277 128.387C197.647 129.974 196.755 131.357 195.6 132.535C194.445 133.702 193.05 134.617 191.417 135.282C189.795 135.948 187.993 136.28 186.01 136.28C184.026 136.28 182.218 135.948 180.585 135.282C178.951 134.617 177.551 133.702 176.385 132.535C175.23 131.357 174.331 129.974 173.69 128.387C173.06 126.801 172.745 125.086 172.745 123.242C172.745 121.399 173.06 119.684 173.69 118.097C174.331 116.511 175.23 115.134 176.385 113.967C177.551 112.801 178.951 111.885 180.585 111.22C182.218 110.555 184.026 110.222 186.01 110.222C187.993 110.222 189.795 110.561 191.417 111.237C193.05 111.902 194.445 112.818 195.6 113.985C196.755 115.152 197.647 116.528 198.277 118.115C198.919 119.702 199.24 121.411 199.24 123.242ZM193.185 123.242C193.185 121.982 193.021 120.851 192.695 119.847C192.368 118.832 191.895 117.975 191.277 117.275C190.67 116.575 189.924 116.038 189.037 115.665C188.15 115.292 187.141 115.105 186.01 115.105C184.866 115.105 183.845 115.292 182.947 115.665C182.06 116.038 181.308 116.575 180.69 117.275C180.083 117.975 179.616 118.832 179.29 119.847C178.963 120.851 178.8 121.982 178.8 123.242C178.8 124.514 178.963 125.657 179.29 126.672C179.616 127.676 180.083 128.527 180.69 129.227C181.308 129.927 182.06 130.464 182.947 130.837C183.845 131.199 184.866 131.38 186.01 131.38C187.141 131.38 188.15 131.199 189.037 130.837C189.924 130.464 190.67 129.927 191.277 129.227C191.895 128.527 192.368 127.676 192.695 126.672C193.021 125.657 193.185 124.514 193.185 123.242ZM234.745 123.242C234.745 125.086 234.425 126.801 233.783 128.387C233.153 129.974 232.26 131.357 231.105 132.535C229.95 133.702 228.556 134.617 226.923 135.282C225.301 135.948 223.499 136.28 221.515 136.28C219.532 136.28 217.724 135.948 216.09 135.282C214.457 134.617 213.057 133.702 211.89 132.535C210.735 131.357 209.837 129.974 209.195 128.387C208.565 126.801 208.25 125.086 208.25 123.242C208.25 121.399 208.565 119.684 209.195 118.097C209.837 116.511 210.735 115.134 211.89 113.967C213.057 112.801 214.457 111.885 216.09 111.22C217.724 110.555 219.532 110.222 221.515 110.222C223.499 110.222 225.301 110.561 226.923 111.237C228.556 111.902 229.95 112.818 231.105 113.985C232.26 115.152 233.153 116.528 233.783 118.115C234.425 119.702 234.745 121.411 234.745 123.242ZM228.69 123.242C228.69 121.982 228.527 120.851 228.2 119.847C227.874 118.832 227.401 117.975 226.783 117.275C226.176 116.575 225.43 116.038 224.543 115.665C223.656 115.292 222.647 115.105 221.515 115.105C220.372 115.105 219.351 115.292 218.453 115.665C217.566 116.038 216.814 116.575 216.195 117.275C215.589 117.975 215.122 118.832 214.795 119.847C214.469 120.851 214.305 121.982 214.305 123.242C214.305 124.514 214.469 125.657 214.795 126.672C215.122 127.676 215.589 128.527 216.195 129.227C216.814 129.927 217.566 130.464 218.453 130.837C219.351 131.199 220.372 131.38 221.515 131.38C222.647 131.38 223.656 131.199 224.543 130.837C225.43 130.464 226.176 129.927 226.783 129.227C227.401 128.527 227.874 127.676 228.2 126.672C228.527 125.657 228.69 124.514 228.69 123.242ZM253.521 122.49C254.326 122.49 255.009 122.391 255.569 122.192C256.14 121.982 256.607 121.697 256.969 121.335C257.33 120.973 257.593 120.553 257.756 120.075C257.92 119.585 258.001 119.06 258.001 118.5C258.001 117.38 257.634 116.505 256.899 115.875C256.175 115.245 255.05 114.93 253.521 114.93H251.141V122.49H253.521ZM266.086 136H260.731C259.74 136 259.028 135.627 258.596 134.88L254.361 127.477C254.163 127.162 253.941 126.935 253.696 126.795C253.451 126.643 253.101 126.567 252.646 126.567H251.141V136H245.226V110.502H253.521C255.365 110.502 256.934 110.695 258.229 111.08C259.535 111.453 260.597 111.978 261.414 112.655C262.242 113.332 262.843 114.131 263.216 115.052C263.59 115.974 263.776 116.977 263.776 118.062C263.776 118.891 263.665 119.672 263.444 120.407C263.222 121.142 262.895 121.825 262.464 122.455C262.032 123.073 261.495 123.627 260.854 124.117C260.224 124.607 259.495 125.01 258.666 125.325C259.051 125.523 259.413 125.774 259.751 126.077C260.09 126.369 260.393 126.719 260.661 127.127L266.086 136Z" fill="#D6D6D6"/>
<path d="M238 129C238 136.18 230.613 142 221.5 142C212.387 142 205 136.18 205 129" stroke="#1CC5D0" stroke-width="5"/>
</svg>
