<svg width="100%" height="100%" viewBox="0 0 408 244" fill="none" xmlns="http://www.w3.org/2000/svg">
<path d="M0 5.99999C0 2.68628 2.68629 0 6 0H402C405.314 0 408 2.68629 408 6V244H0V5.99999Z" fill="#F7F9FE"/>
<g filter="url(#filter0_d)">
<path d="M132.629 91.0544H108.446C103.619 91.0544 99.7051 95.2928 99.7051 100.521V128.627C99.7051 133.855 103.619 138.093 108.446 138.093H132.629C137.457 138.093 141.37 133.855 141.37 128.627V100.521C141.37 95.2928 137.457 91.0544 132.629 91.0544Z" fill="white"/>
</g>
<path d="M131.766 88.8667H129.174C126.277 88.8667 123.929 91.4097 123.929 94.5467V95.5845C123.929 98.7215 126.277 101.265 129.174 101.265H131.766C134.662 101.265 137.01 98.7215 137.01 95.5845V94.5467C137.01 91.4097 134.662 88.8667 131.766 88.8667Z" fill="#7597FC"/>
<path d="M114.482 107.463C115.151 107.463 115.693 107.055 115.693 106.552C115.693 106.048 115.151 105.64 114.482 105.64C113.813 105.64 113.271 106.048 113.271 106.552C113.271 107.055 113.813 107.463 114.482 107.463Z" fill="#474747"/>
<path d="M126.594 107.463C127.263 107.463 127.805 107.055 127.805 106.552C127.805 106.048 127.263 105.64 126.594 105.64C125.925 105.64 125.383 106.048 125.383 106.552C125.383 107.055 125.925 107.463 126.594 107.463Z" fill="#474747"/>
<path d="M118.602 109.287C118.488 110.676 122.834 110.813 122.96 109.287" stroke="black" stroke-width="2"/>
<path d="M168.444 126.733C167.955 126.733 167.593 126.62 167.36 126.392C167.151 126.14 167.046 125.749 167.046 125.219V101.741C167.046 101.211 167.151 100.832 167.36 100.605C167.593 100.353 167.955 100.227 168.444 100.227H175.367C178.211 100.227 180.297 100.82 181.626 102.006C182.954 103.193 183.619 104.834 183.619 106.929C183.619 108.191 183.257 109.352 182.535 110.413C181.836 111.448 180.938 112.205 179.843 112.685L179.878 112.836C181.253 113.139 182.383 113.884 183.269 115.07C184.155 116.257 184.598 117.582 184.598 119.046C184.598 121.52 183.863 123.426 182.395 124.764C180.95 126.077 178.77 126.733 175.857 126.733H168.444ZM174.843 110.791C175.868 110.791 176.661 110.526 177.22 109.996C177.803 109.466 178.094 108.784 178.094 107.951C178.094 106.083 177.034 105.149 174.913 105.149H172.43V110.791H174.843ZM175.857 121.773C176.882 121.773 177.675 121.508 178.234 120.978C178.794 120.447 179.073 119.69 179.073 118.706C179.073 117.721 178.747 116.989 178.094 116.509C177.442 116.004 176.509 115.752 175.297 115.752H172.43V121.773H175.857ZM201.233 126.809C199.811 126.809 199.1 126.531 199.1 125.976C199.1 125.875 199.146 125.648 199.24 125.294L206.932 100.946C207.118 100.416 207.783 100.151 208.925 100.151H210.743C211.908 100.151 212.573 100.416 212.736 100.946L220.428 125.294C220.498 125.547 220.533 125.774 220.533 125.976C220.533 126.531 219.95 126.809 218.785 126.809H217.246C216.104 126.809 215.451 126.544 215.288 126.014L213.89 121.394H205.638L204.24 126.014C204.076 126.544 203.54 126.809 202.631 126.809H201.233ZM212.386 116.396L210.393 109.655C210.23 109.15 210.055 108.343 209.869 107.232H209.729C209.706 107.383 209.647 107.724 209.554 108.254C209.484 108.759 209.368 109.226 209.205 109.655L207.142 116.396H212.386ZM246.975 127.036C243.759 127.036 241.264 126.241 239.493 124.651C237.722 123.035 236.836 120.776 236.836 117.872V101.363C236.836 100.555 237.535 100.151 238.934 100.151H240.122C241.521 100.151 242.22 100.555 242.22 101.363V117.494C242.22 118.832 242.662 119.93 243.549 120.788C244.435 121.646 245.577 122.076 246.975 122.076C248.374 122.076 249.515 121.646 250.402 120.788C251.311 119.93 251.765 118.832 251.765 117.494V101.363C251.765 100.555 252.465 100.151 253.863 100.151H255.017C256.416 100.151 257.115 100.555 257.115 101.363V117.872C257.115 120.776 256.229 123.035 254.458 124.651C252.687 126.241 250.192 127.036 246.975 127.036ZM282.39 126.809C280.992 126.809 280.293 126.405 280.293 125.597V105.187H274.733C274.361 105.187 274.093 105.036 273.929 104.733C273.766 104.43 273.684 103.95 273.684 103.294V102.12C273.684 101.464 273.766 100.984 273.929 100.681C274.093 100.378 274.361 100.227 274.733 100.227H291.271C291.645 100.227 291.913 100.378 292.075 100.681C292.24 100.984 292.32 101.464 292.32 102.12V103.294C292.32 103.95 292.24 104.43 292.075 104.733C291.913 105.036 291.645 105.187 291.271 105.187H285.712V125.597C285.712 126.405 285.013 126.809 283.614 126.809H282.39Z" fill="#505050"/>
<defs>
<filter id="filter0_d" x="74.7051" y="70.0544" width="91.6654" height="97.0387" filterUnits="userSpaceOnUse" color-interpolation-filters="sRGB">
<feFlood flood-opacity="0" result="BackgroundImageFix"/>
<feColorMatrix in="SourceAlpha" type="matrix" values="0 0 0 0 0 0 0 0 0 0 0 0 0 0 0 0 0 0 127 0"/>
<feOffset dy="4"/>
<feGaussianBlur stdDeviation="12.5"/>
<feColorMatrix type="matrix" values="0 0 0 0 0.458824 0 0 0 0 0.592157 0 0 0 0 0.988235 0 0 0 0.2 0"/>
<feBlend mode="normal" in2="BackgroundImageFix" result="effect1_dropShadow"/>
<feBlend mode="normal" in="SourceGraphic" in2="effect1_dropShadow" result="shape"/>
</filter>
</defs>
</svg>
