<svg width="40" height="30" viewBox="0 0 40 30" fill="none" xmlns="http://www.w3.org/2000/svg">
<path d="M36.8302 12.6201H35.0868C35.351 11.4352 35.5095 10.4082 35.6151 9.61817C35.7472 8.68993 34.7698 7.88019 33.5019 7.88019H2.12102C0.879521 7.88019 -0.0978307 8.68993 0.00782897 9.61817C0.694617 14.8124 3.89082 30 17.8115 30C25.419 30 29.8038 25.4773 32.3661 20.5201H34.717C34.717 20.5201 37.3585 20.5201 37.8868 19.3351L40 15.7801C40 14.1211 38.8906 12.6201 36.8302 12.6201ZM24.9699 26.366C22.8831 27.7485 20.5322 28.42 17.8115 28.42C15.0907 28.42 12.7398 27.7485 10.653 26.366C8.83041 25.1415 7.2191 23.3838 5.87194 21.1323C3.38894 16.9059 2.438 12.0079 2.12102 9.47993H33.5019C33.1585 12.0277 32.234 16.9059 29.751 21.1521C28.4039 23.3838 26.7925 25.1415 24.9699 26.366ZM35.9585 18.7031C35.9585 18.7228 35.9321 18.7426 35.9321 18.7426C35.7208 18.8413 35.1397 18.9401 34.717 18.9401H33.7925L35.5359 14.2001H36.8302C37.4906 14.2001 37.7811 14.8914 37.8604 15.4839L35.9585 18.7031Z" fill="#FF697C"/>
<path d="M14.6417 4.32511C14.6417 4.36461 14.6417 4.42386 14.6681 4.46336C14.6945 4.56211 14.6945 4.66085 14.7209 4.7596C14.7738 4.93734 14.8266 5.09534 14.8794 5.25333C15.0115 5.54957 15.1436 5.78657 15.2492 5.94456C15.3021 6.02356 15.3549 6.08281 15.3813 6.12231C15.4077 6.16181 15.4341 6.18156 15.4341 6.18156C15.487 6.2408 15.5926 6.30005 15.6983 6.2803C15.8304 6.26055 15.936 6.16181 15.9096 6.04331V6.02356C15.9096 6.02356 15.8832 5.92481 15.8568 5.76682C15.8304 5.60882 15.7775 5.37183 15.7247 5.09534C15.6983 4.95709 15.6719 4.81885 15.6719 4.66085C15.6719 4.58185 15.6719 4.50286 15.6719 4.44361C15.6719 4.40411 15.6719 4.36461 15.6719 4.30536V4.26586V4.24612V4.20662C15.6983 4.08812 15.7511 3.98937 15.8568 3.87088C15.9624 3.75238 16.1209 3.63389 16.3058 3.43639C16.3851 3.33764 16.4907 3.2389 16.57 3.10065C16.5964 3.0414 16.6228 2.98216 16.6492 2.90316C16.6756 2.84391 16.7021 2.76491 16.7021 2.70567C16.7021 2.66617 16.7285 2.62667 16.7285 2.60692V2.52792V2.44892V2.42917V2.40942V2.36993C16.7285 2.27118 16.7021 2.17243 16.6756 2.07368C16.5964 1.6787 16.4907 1.34296 16.3851 1.06647C16.2794 0.770226 16.1473 0.552983 16.0681 0.375238C15.9889 0.217243 15.936 0.118496 15.936 0.118496C15.8832 0.0394984 15.7775 0 15.6719 0C15.5134 0.0197494 15.4341 0.118496 15.4341 0.217243C15.4341 0.217243 15.4606 0.31599 15.487 0.473985C15.5134 0.63198 15.5398 0.888722 15.5926 1.16521C15.6455 1.4417 15.6719 1.77744 15.6983 2.11318C15.6983 2.19218 15.6983 2.29093 15.6983 2.36993C15.6983 2.38967 15.6719 2.56742 15.6719 2.58717C15.6455 2.62667 15.619 2.68592 15.5926 2.74516C15.5662 2.80441 15.5134 2.86366 15.4606 2.92291C15.3285 3.0414 15.1436 3.1994 14.9587 3.39689C14.7738 3.61414 14.6681 3.89063 14.6681 4.12762V4.22637C14.6681 4.24612 14.6681 4.24612 14.6681 4.28562L14.6417 4.32511Z" fill="#FF697C"/>
<path d="M16.7549 4.28562V4.32511C16.7549 4.36461 16.7549 4.42386 16.7813 4.46336C16.8077 4.56211 16.8077 4.66085 16.8341 4.7596C16.887 4.93734 16.9398 5.09534 16.9926 5.25333C17.1247 5.54957 17.2568 5.78657 17.3624 5.94456C17.4153 6.02356 17.4681 6.08281 17.4945 6.12231C17.5209 6.16181 17.5473 6.18156 17.5473 6.18156C17.6002 6.2408 17.7058 6.30005 17.8115 6.2803C17.9436 6.26055 18.0492 6.16181 18.0228 6.04331V6.02356C18.0228 6.02356 17.9964 5.92481 17.97 5.76682C17.9436 5.60882 17.8907 5.37183 17.8379 5.09534C17.8115 4.95709 17.7851 4.81885 17.7851 4.66085C17.7851 4.58185 17.7851 4.50286 17.7851 4.44361C17.7851 4.40411 17.7851 4.36461 17.7851 4.30536V4.26586V4.24612V4.20662C17.8115 4.08812 17.8643 3.98937 17.97 3.87088C18.0756 3.75238 18.2341 3.63389 18.419 3.43639C18.4983 3.33764 18.6039 3.2389 18.6832 3.10065C18.7096 3.0414 18.736 2.98216 18.7624 2.90316C18.7888 2.84391 18.8153 2.76491 18.8153 2.70567C18.8153 2.66617 18.8417 2.62667 18.8417 2.60692V2.52792V2.44892V2.42917V2.40942V2.36993C18.8417 2.27118 18.8153 2.17243 18.7888 2.07368C18.7096 1.6787 18.6039 1.34296 18.4983 1.06647C18.3926 0.770226 18.2605 0.552983 18.1813 0.375238C18.102 0.217243 18.0492 0.118496 18.0492 0.118496C17.9964 0.0394984 17.8907 0 17.7851 0C17.6266 0.0197494 17.5473 0.118496 17.5473 0.217243C17.5473 0.217243 17.5737 0.31599 17.6002 0.473985C17.6266 0.63198 17.653 0.888722 17.7058 1.16521C17.7587 1.4417 17.7851 1.77744 17.8115 2.11318C17.8115 2.19218 17.8115 2.29093 17.8115 2.36993C17.8115 2.38967 17.7851 2.56742 17.7851 2.58717C17.7587 2.62667 17.7322 2.68592 17.7058 2.74516C17.6794 2.80441 17.6266 2.86366 17.5737 2.92291C17.4417 3.0414 17.2568 3.1994 17.0719 3.39689C16.887 3.61414 16.7813 3.89063 16.7813 4.12762V4.22637C16.7549 4.26587 16.7549 4.26587 16.7549 4.28562Z" fill="#FF697C"/>
<path d="M18.8681 4.28562V4.32511C18.8681 4.36461 18.8681 4.42386 18.8945 4.46336C18.9209 4.56211 18.9209 4.66085 18.9473 4.7596C19.0002 4.93734 19.053 5.09534 19.1058 5.25333C19.2379 5.54957 19.37 5.78657 19.4756 5.94456C19.5285 6.02356 19.5813 6.08281 19.6077 6.12231C19.6341 6.16181 19.6605 6.18156 19.6605 6.18156C19.7134 6.2408 19.819 6.30005 19.9247 6.2803C20.0568 6.26055 20.1624 6.16181 20.136 6.04331V6.02356C20.136 6.02356 20.1096 5.92481 20.0832 5.76682C20.0568 5.60882 20.0039 5.37183 19.9511 5.09534C19.9247 4.95709 19.8983 4.81885 19.8983 4.66085C19.8983 4.58185 19.8983 4.50286 19.8983 4.44361C19.8983 4.40411 19.8983 4.36461 19.8983 4.30536V4.26586V4.24612V4.20662C19.9247 4.08812 19.9775 3.98937 20.0832 3.87088C20.1888 3.75238 20.3473 3.63389 20.5322 3.43639C20.6115 3.33764 20.7171 3.2389 20.7964 3.10065C20.8228 3.0414 20.8492 2.98216 20.8756 2.90316C20.902 2.84391 20.9284 2.76491 20.9284 2.70567C20.9284 2.66617 20.9549 2.62667 20.9549 2.60692V2.52792V2.44892V2.42917V2.40942V2.36993C20.9549 2.27118 20.9284 2.17243 20.902 2.07368C20.8228 1.6787 20.7171 1.34296 20.6115 1.06647C20.5058 0.770226 20.3737 0.552983 20.2945 0.375238C20.2152 0.217243 20.1624 0.118496 20.1624 0.118496C20.1096 0.0394984 20.0039 0 19.8983 0C19.7398 0.0197494 19.6605 0.118496 19.6605 0.217243C19.6605 0.217243 19.687 0.31599 19.7134 0.473985C19.7398 0.63198 19.7662 0.888722 19.819 1.16521C19.8719 1.4417 19.8983 1.77744 19.9247 2.11318C19.9247 2.19218 19.9247 2.29093 19.9247 2.36993C19.9247 2.38967 19.8983 2.56742 19.8983 2.58717C19.8719 2.62667 19.8454 2.68592 19.819 2.74516C19.7926 2.80441 19.7398 2.86366 19.687 2.92291C19.5549 3.0414 19.37 3.1994 19.1851 3.39689C19.0002 3.61414 18.8945 3.89063 18.8945 4.12762V4.22637C18.8681 4.26587 18.8681 4.26587 18.8681 4.28562Z" fill="#FF697C"/>
<path d="M27.8756 17.36H7.74742C7.03422 17.36 6.50592 17.8933 6.74365 18.4068C6.95497 18.8413 7.16629 19.2758 7.37761 19.7103C9.93985 24.5096 13.3474 26.8401 17.8115 26.8401C22.2756 26.8401 25.6831 24.5096 28.2454 19.7103C28.4831 19.2758 28.6944 18.8413 28.8793 18.4068C29.117 17.8933 28.6152 17.36 27.8756 17.36Z" fill="#FF697C"/>
</svg>
