<svg width="100%" height="100%" viewBox="0 0 408 244" fill="none" xmlns="http://www.w3.org/2000/svg">
<path d="M0 5.99999C0 2.68628 2.68629 0 6 0H402C405.314 0 408 2.68629 408 6V244H0V5.99999Z" fill="#F7F9FE"/>
<path d="M179.525 119.032C177.984 119.029 176.493 118.535 175.314 117.638L174.125 116.743C172.522 115.537 170.503 114.876 168.418 114.875V111.312C171.425 111.314 174.336 112.267 176.647 114.007L177.779 114.86C178.171 115.163 178.649 115.358 179.159 115.425C179.668 115.492 180.188 115.428 180.659 115.239C181.126 115.051 181.522 114.744 181.797 114.354C182.073 113.965 182.216 113.511 182.209 113.049C182.21 112.732 182.142 112.419 182.008 112.126C181.874 111.833 181.676 111.568 181.428 111.344L175.025 105.555C174.09 104.723 173.445 103.661 173.171 102.501C172.896 101.341 173.004 100.134 173.48 99.0288C173.96 97.9147 174.804 96.9594 175.9 96.2899C176.995 95.6204 178.29 95.2685 179.613 95.2812H184.179C184.702 95.2812 185.203 95.4689 185.572 95.8029C185.942 96.137 186.149 96.59 186.149 97.0625C186.149 97.5349 185.942 97.988 185.572 98.322C185.203 98.656 184.702 98.8437 184.179 98.8437H179.613C179.085 98.8438 178.57 98.9852 178.131 99.2501C177.693 99.5151 177.351 99.8916 177.149 100.332C176.947 100.773 176.894 101.258 176.997 101.725C177.1 102.193 177.354 102.623 177.727 102.96L184.214 108.825C184.954 109.494 185.507 110.311 185.829 111.211C186.151 112.111 186.232 113.066 186.066 114C185.899 114.933 185.49 115.818 184.872 116.58C184.254 117.343 183.444 117.962 182.509 118.387C181.584 118.809 180.562 119.03 179.525 119.032Z" fill="#4963EF"/>
<path d="M156.597 129.125V125.562H142.806V134.469L154.627 141.594L150.687 152.281H160.538L164.478 138.031L156.597 129.125Z" fill="#4963EF"/>
<path d="M99.4628 139.813L91.5822 152.281H101.433L109.313 139.813V129.125H99.4628V139.813Z" fill="#4963EF"/>
<path d="M75.8209 116.656L75.0968 114.692C74.7339 113.708 74.0378 112.852 73.107 112.246C72.1761 111.639 71.0578 111.312 69.9104 111.312V118.437C69.9104 119.855 70.5331 121.214 71.6415 122.216C72.75 123.218 74.2533 123.781 75.8209 123.781H79.7612V116.656H75.8209Z" fill="#D6D6D4"/>
<path d="M184.179 136.25L180.239 152.281H170.388L174.329 139.813L163.052 136.753C161.383 136.302 159.846 135.522 158.55 134.469H129.015V139.813L121.135 152.281H111.284L119.164 139.813V134.469H93.5522L87.6418 139.813H79.7612V116.656L103.479 98.3027C108.128 94.3809 114.155 92.0627 120.503 91.754C126.852 91.4456 133.119 93.1663 138.206 96.615L141.23 98.6657C144.81 101.094 149.166 102.407 153.642 102.406C153.755 102.406 153.868 102.406 153.982 102.411C159.408 102.491 164.583 104.496 168.389 107.994C172.195 111.492 174.329 116.202 174.329 121.109V127.344L184.179 136.25Z" fill="#4963EF"/>
<path d="M102.157 114.692L101.433 116.656H95.5225V123.781H101.433C103 123.781 104.504 123.218 105.612 122.216C106.721 121.214 107.343 119.855 107.343 118.437V111.312C106.196 111.312 105.078 111.639 104.147 112.246C103.216 112.852 102.52 113.708 102.157 114.692Z" fill="#D6D6D4"/>
<path d="M184.179 136.25L180.239 152.281H170.388L174.329 139.812L163.052 136.753C161.383 136.302 159.846 135.522 158.55 134.469H129.015V139.812L121.135 152.281H111.284L119.164 139.812V134.469H94.3331C127.641 129.023 140.947 118.491 153.982 102.411C159.409 102.491 164.583 104.496 168.389 107.994C172.195 111.492 174.329 116.202 174.329 121.109V127.344L184.179 136.25Z" fill="#5F76F1"/>
<path d="M158.567 136.265C158.082 136.265 157.615 136.104 157.254 135.811C155.809 134.64 154.652 133.208 153.86 131.607C153.068 130.005 152.658 128.271 152.657 126.517V123.781C152.657 123.309 152.864 122.856 153.234 122.522C153.603 122.188 154.104 122 154.627 122C155.149 122 155.651 122.188 156.02 122.522C156.389 122.856 156.597 123.309 156.597 123.781V126.517C156.598 127.77 156.891 129.009 157.457 130.152C158.023 131.296 158.849 132.319 159.881 133.155C160.178 133.396 160.388 133.712 160.483 134.063C160.577 134.413 160.551 134.782 160.409 135.119C160.266 135.456 160.014 135.746 159.685 135.951C159.356 136.155 158.966 136.265 158.567 136.265Z" fill="#4963EF"/>
<path d="M129.015 134.469C128.493 134.469 127.991 134.281 127.622 133.947C127.252 133.613 127.045 133.16 127.045 132.688V125.563C127.045 125.09 127.252 124.637 127.622 124.303C127.991 123.969 128.493 123.781 129.015 123.781C129.538 123.781 130.039 123.969 130.408 124.303C130.778 124.637 130.985 125.09 130.985 125.563V132.688C130.985 133.16 130.778 133.613 130.408 133.947C130.039 134.281 129.538 134.469 129.015 134.469Z" fill="#4963EF"/>
<path d="M209.619 113.714C210.116 113.714 210.614 113.685 211.111 113.626C211.608 113.548 212.051 113.421 212.44 113.245C212.829 113.069 213.143 112.825 213.38 112.512C213.64 112.18 213.769 111.76 213.769 111.251C213.769 110.861 213.65 110.528 213.413 110.255C213.175 109.962 212.872 109.698 212.505 109.463C212.137 109.229 211.727 109.014 211.273 108.818C210.819 108.623 210.365 108.408 209.911 108.173C209.327 107.861 208.776 107.529 208.257 107.177C207.739 106.825 207.296 106.434 206.928 106.004C206.561 105.555 206.269 105.066 206.053 104.538C205.837 103.991 205.728 103.366 205.728 102.662C205.728 101.763 205.912 100.933 206.28 100.171C206.669 99.3889 207.231 98.7147 207.966 98.1479C208.722 97.5812 209.662 97.1415 210.786 96.8288C211.91 96.4966 213.229 96.3305 214.742 96.3305C215.434 96.3305 216.104 96.3891 216.752 96.5063C217.401 96.6041 218.006 96.7311 218.568 96.8874C219.13 97.0438 219.638 97.2294 220.092 97.4444C220.567 97.6398 220.967 97.8353 221.292 98.0307L219.184 101.402C218.644 101.031 217.984 100.718 217.206 100.464C216.428 100.21 215.585 100.083 214.677 100.083C214.18 100.083 213.705 100.122 213.251 100.2C212.797 100.278 212.397 100.415 212.051 100.61C211.705 100.786 211.424 101.021 211.208 101.314C211.013 101.607 210.916 101.969 210.916 102.399C210.916 102.789 210.992 103.122 211.143 103.395C211.316 103.649 211.532 103.874 211.792 104.069C212.051 104.265 212.354 104.441 212.699 104.597C213.045 104.753 213.413 104.92 213.802 105.095C214.472 105.408 215.12 105.74 215.747 106.092C216.374 106.444 216.925 106.854 217.401 107.323C217.876 107.773 218.255 108.291 218.536 108.877C218.817 109.463 218.957 110.157 218.957 110.958C218.957 112.072 218.73 113.04 218.276 113.86C217.822 114.681 217.185 115.365 216.363 115.912C215.542 116.46 214.558 116.86 213.413 117.114C212.289 117.388 211.035 117.525 209.652 117.525C208.744 117.525 207.89 117.456 207.09 117.319C206.312 117.183 205.599 117.026 204.95 116.85C204.323 116.655 203.772 116.45 203.297 116.235C202.843 116.02 202.475 115.824 202.194 115.649L204.334 112.16C204.594 112.317 204.907 112.483 205.275 112.659C205.642 112.834 206.053 113.001 206.507 113.157C206.982 113.313 207.479 113.45 207.998 113.567C208.517 113.665 209.057 113.714 209.619 113.714ZM225.915 97.8548L230.94 97.1513L229.708 101.695H235.091L234.118 105.271H228.768L227.341 110.665C227.212 111.115 227.125 111.535 227.082 111.926C227.06 112.317 227.115 112.659 227.244 112.952C227.396 113.225 227.644 113.44 227.99 113.597C228.336 113.753 228.811 113.831 229.417 113.831C229.935 113.831 230.432 113.792 230.908 113.714C231.405 113.616 231.902 113.489 232.399 113.333L232.756 116.675C232.108 116.89 231.405 117.075 230.649 117.232C229.892 117.388 228.995 117.466 227.958 117.466C226.466 117.466 225.31 117.271 224.488 116.88C223.667 116.469 223.083 115.922 222.737 115.238C222.392 114.535 222.24 113.733 222.283 112.834C222.327 111.935 222.478 110.988 222.737 109.991L225.915 97.8548ZM242.009 117.525C240.863 117.525 239.869 117.368 239.026 117.056C238.183 116.743 237.48 116.303 236.918 115.737C236.378 115.17 235.967 114.505 235.686 113.743C235.405 112.961 235.265 112.102 235.265 111.163C235.265 109.991 235.47 108.818 235.881 107.646C236.313 106.473 236.94 105.418 237.761 104.48C238.583 103.542 239.588 102.78 240.777 102.193C241.965 101.587 243.327 101.285 244.861 101.285C245.985 101.285 246.969 101.441 247.812 101.754C248.676 102.066 249.379 102.506 249.919 103.073C250.481 103.639 250.903 104.314 251.184 105.095C251.465 105.858 251.605 106.708 251.605 107.646C251.605 108.818 251.4 109.991 250.989 111.163C250.579 112.336 249.973 113.391 249.174 114.329C248.374 115.267 247.369 116.039 246.158 116.645C244.969 117.232 243.587 117.525 242.009 117.525ZM244.407 104.978C243.695 104.978 243.068 105.164 242.527 105.535C241.987 105.906 241.533 106.375 241.166 106.942C240.798 107.509 240.517 108.134 240.323 108.818C240.15 109.483 240.063 110.118 240.063 110.724C240.063 111.72 240.236 112.492 240.582 113.04C240.928 113.567 241.555 113.831 242.463 113.831C243.176 113.831 243.803 113.645 244.343 113.274C244.883 112.903 245.337 112.434 245.704 111.867C246.072 111.3 246.342 110.685 246.515 110.02C246.709 109.336 246.807 108.691 246.807 108.085C246.807 107.089 246.634 106.327 246.288 105.799C245.942 105.252 245.315 104.978 244.407 104.978ZM253.882 110.958C253.882 109.629 254.12 108.379 254.595 107.206C255.071 106.033 255.752 105.007 256.638 104.128C257.524 103.249 258.594 102.555 259.848 102.047C261.123 101.539 262.539 101.285 264.095 101.285C265.068 101.285 265.933 101.373 266.689 101.548C267.467 101.705 268.17 101.92 268.797 102.193L267.143 105.594C266.711 105.437 266.257 105.301 265.781 105.183C265.327 105.047 264.765 104.978 264.095 104.978C262.474 104.978 261.199 105.477 260.269 106.473C259.34 107.45 258.875 108.789 258.875 110.489C258.875 111.486 259.113 112.297 259.589 112.922C260.064 113.528 260.94 113.831 262.215 113.831C262.842 113.831 263.447 113.772 264.031 113.655C264.614 113.538 265.133 113.391 265.587 113.215L265.944 116.704C265.338 116.919 264.668 117.105 263.933 117.261C263.22 117.437 262.345 117.525 261.307 117.525C259.967 117.525 258.832 117.349 257.903 116.997C256.973 116.645 256.206 116.176 255.601 115.59C254.995 114.984 254.552 114.281 254.271 113.479C254.012 112.678 253.882 111.838 253.882 110.958ZM275.914 107.265C277.211 106.327 278.432 105.369 279.577 104.392C280.723 103.415 281.707 102.516 282.528 101.695H287.975C286.765 102.907 285.5 104.099 284.181 105.271C282.885 106.424 281.393 107.656 279.707 108.965C280.161 109.473 280.615 110.059 281.069 110.724C281.544 111.388 281.988 112.082 282.398 112.805C282.831 113.528 283.22 114.261 283.565 115.004C283.933 115.746 284.236 116.45 284.473 117.114H279.091C278.897 116.606 278.648 116.049 278.345 115.443C278.064 114.838 277.74 114.241 277.373 113.655C277.027 113.049 276.659 112.463 276.27 111.896C275.881 111.33 275.492 110.821 275.103 110.372L273.287 117.114H268.489L274.325 95.0699L279.35 94.3664L275.914 107.265ZM217.109 134.459C216.115 134.459 215.185 134.693 214.321 135.162C213.478 135.631 212.732 136.257 212.083 137.038C211.457 137.82 210.959 138.719 210.592 139.735C210.246 140.751 210.073 141.797 210.073 142.872C210.073 144.337 210.408 145.53 211.078 146.448C211.77 147.347 212.883 147.797 214.418 147.797C215.412 147.797 216.331 147.562 217.174 147.093C218.038 146.624 218.784 145.999 219.411 145.217C220.059 144.435 220.557 143.546 220.902 142.549C221.27 141.533 221.454 140.478 221.454 139.383C221.454 137.918 221.108 136.735 220.416 135.836C219.746 134.918 218.644 134.459 217.109 134.459ZM213.899 151.725C212.581 151.725 211.37 151.529 210.268 151.138C209.165 150.748 208.214 150.191 207.414 149.467C206.615 148.725 205.988 147.826 205.534 146.771C205.102 145.715 204.885 144.523 204.885 143.194C204.885 141.67 205.177 140.155 205.761 138.65C206.344 137.146 207.177 135.797 208.257 134.605C209.36 133.393 210.7 132.416 212.278 131.674C213.856 130.912 215.639 130.53 217.628 130.53C218.946 130.53 220.157 130.726 221.259 131.117C222.361 131.508 223.313 132.074 224.112 132.817C224.912 133.54 225.528 134.429 225.96 135.485C226.414 136.54 226.641 137.732 226.641 139.061C226.641 140.585 226.35 142.11 225.766 143.634C225.204 145.139 224.372 146.497 223.269 147.709C222.189 148.901 220.859 149.868 219.281 150.611C217.703 151.353 215.909 151.725 213.899 151.725ZM231.953 151.314C231.391 149.36 230.883 147.083 230.429 144.484C229.976 141.865 229.662 139.002 229.489 135.895H234.482C234.504 136.657 234.536 137.497 234.58 138.416C234.623 139.315 234.677 140.224 234.742 141.142C234.807 142.061 234.882 142.96 234.969 143.839C235.055 144.699 235.152 145.481 235.26 146.184C235.736 145.598 236.266 144.875 236.849 144.015C237.454 143.155 238.038 142.256 238.6 141.318C239.162 140.38 239.681 139.442 240.156 138.504C240.632 137.546 240.999 136.677 241.259 135.895H246.382C245.82 137.283 245.117 138.709 244.274 140.175C243.453 141.641 242.566 143.057 241.615 144.425C240.664 145.793 239.692 147.073 238.697 148.266C237.725 149.458 236.817 150.474 235.974 151.314H231.953ZM246.378 145.276C246.378 144.025 246.616 142.813 247.091 141.641C247.588 140.468 248.28 139.432 249.166 138.533C250.053 137.615 251.123 136.882 252.376 136.335C253.652 135.768 255.057 135.485 256.591 135.485C257.348 135.485 258.05 135.582 258.699 135.778C259.347 135.973 259.909 136.256 260.385 136.628C260.882 136.999 261.26 137.458 261.52 138.006C261.801 138.533 261.941 139.139 261.941 139.823C261.941 140.917 261.671 141.846 261.13 142.608C260.59 143.37 259.834 143.995 258.861 144.484C257.91 144.953 256.775 145.295 255.456 145.51C254.138 145.725 252.7 145.832 251.144 145.832C251.295 146.653 251.62 147.24 252.117 147.591C252.636 147.924 253.446 148.09 254.549 148.09C255.24 148.09 255.943 148.041 256.656 147.943C257.369 147.826 258.039 147.66 258.666 147.445L259.023 150.875C258.418 151.09 257.64 151.285 256.689 151.461C255.759 151.637 254.743 151.725 253.641 151.725C252.301 151.725 251.166 151.559 250.236 151.226C249.328 150.875 248.583 150.406 247.999 149.819C247.437 149.233 247.026 148.549 246.767 147.767C246.508 146.986 246.378 146.155 246.378 145.276ZM255.813 138.944C254.711 138.944 253.738 139.305 252.895 140.028C252.074 140.732 251.533 141.67 251.274 142.842C252.614 142.803 253.695 142.706 254.516 142.549C255.338 142.373 255.975 142.168 256.429 141.934C256.883 141.699 257.186 141.445 257.337 141.172C257.488 140.898 257.564 140.624 257.564 140.351C257.564 139.413 256.98 138.944 255.813 138.944ZM275.633 139.647C275.2 139.549 274.768 139.462 274.336 139.383C273.925 139.286 273.309 139.237 272.488 139.237C272.185 139.237 271.85 139.266 271.482 139.325C271.115 139.364 270.812 139.413 270.575 139.471L267.43 151.314H262.599L266.489 136.716C267.419 136.442 268.456 136.188 269.602 135.954C270.769 135.7 272.077 135.573 273.525 135.573C274.065 135.573 274.66 135.621 275.308 135.719C275.978 135.797 276.562 135.934 277.059 136.129L275.633 139.647ZM295.87 151.607C294.335 151.607 293.125 151.432 292.239 151.08C291.374 150.708 290.747 150.21 290.358 149.585C289.991 148.959 289.807 148.246 289.807 147.445C289.829 146.624 289.958 145.754 290.196 144.836L294.314 129.27L299.339 128.566L294.832 145.451C294.746 145.803 294.692 146.126 294.67 146.419C294.67 146.712 294.735 146.976 294.865 147.21C294.995 147.425 295.211 147.601 295.513 147.738C295.838 147.875 296.281 147.963 296.843 148.002L295.87 151.607ZM289.126 128.566C290.099 128.566 290.888 128.635 291.493 128.772C292.098 128.908 292.584 129.055 292.952 129.211L291.234 132.612C290.844 132.514 290.466 132.436 290.099 132.377C289.753 132.299 289.364 132.26 288.931 132.26C287.743 132.26 286.856 132.534 286.273 133.081C285.711 133.628 285.322 134.312 285.106 135.133L284.911 135.895H290.617L289.645 139.471H283.971L281.993 146.946C281.258 149.741 280.458 151.91 279.594 153.454C278.729 155.018 277.778 156.151 276.74 156.855L272.428 156.298C272.99 155.829 273.509 155.252 273.984 154.568C274.46 153.884 274.881 153.161 275.249 152.399C275.638 151.637 275.962 150.865 276.222 150.083C276.503 149.282 276.73 148.539 276.903 147.855L280.275 135.074C280.815 133.003 281.788 131.4 283.193 130.267C284.598 129.133 286.575 128.566 289.126 128.566ZM306.728 151.725C305.583 151.725 304.588 151.568 303.745 151.256C302.902 150.943 302.2 150.503 301.638 149.937C301.097 149.37 300.687 148.705 300.406 147.943C300.125 147.161 299.984 146.302 299.984 145.363C299.984 144.191 300.189 143.018 300.6 141.846C301.032 140.673 301.659 139.618 302.481 138.68C303.302 137.742 304.307 136.98 305.496 136.393C306.685 135.787 308.047 135.485 309.581 135.485C310.705 135.485 311.689 135.641 312.532 135.954C313.396 136.266 314.099 136.706 314.639 137.273C315.201 137.839 315.623 138.514 315.904 139.295C316.185 140.058 316.325 140.908 316.325 141.846C316.325 143.018 316.12 144.191 315.709 145.363C315.299 146.536 314.693 147.591 313.894 148.529C313.094 149.467 312.089 150.239 310.878 150.845C309.689 151.432 308.306 151.725 306.728 151.725ZM309.127 139.178C308.414 139.178 307.787 139.364 307.247 139.735C306.707 140.106 306.253 140.575 305.885 141.142C305.518 141.709 305.237 142.334 305.042 143.018C304.869 143.683 304.783 144.318 304.783 144.924C304.783 145.92 304.956 146.692 305.302 147.24C305.647 147.767 306.274 148.031 307.182 148.031C307.895 148.031 308.522 147.845 309.063 147.474C309.603 147.103 310.057 146.634 310.424 146.067C310.792 145.5 311.062 144.885 311.235 144.22C311.429 143.536 311.527 142.891 311.527 142.285C311.527 141.289 311.354 140.527 311.008 139.999C310.662 139.452 310.035 139.178 309.127 139.178ZM330.671 142.285C330.26 143.087 329.795 143.908 329.277 144.748C328.779 145.569 328.261 146.38 327.72 147.181C327.202 147.963 326.694 148.715 326.196 149.438C325.699 150.142 325.256 150.767 324.867 151.314H321.106C320.933 150.493 320.749 149.516 320.555 148.383C320.382 147.249 320.209 146.018 320.036 144.689C319.863 143.341 319.701 141.924 319.55 140.439C319.42 138.934 319.323 137.419 319.258 135.895H323.992C323.992 136.599 323.992 137.361 323.992 138.181C324.013 139.002 324.035 139.852 324.056 140.732C324.1 141.611 324.154 142.51 324.219 143.429C324.283 144.347 324.37 145.256 324.478 146.155C325.018 145.334 325.548 144.484 326.067 143.605C326.607 142.706 327.115 141.816 327.591 140.937C328.088 140.038 328.542 139.159 328.952 138.299C329.385 137.439 329.763 136.638 330.087 135.895H334.108C334.108 137.302 334.129 138.875 334.172 140.615C334.237 142.354 334.378 144.201 334.594 146.155C335.178 145.276 335.718 144.377 336.215 143.458C336.712 142.52 337.166 141.601 337.577 140.703C338.009 139.804 338.387 138.944 338.712 138.123C339.058 137.302 339.36 136.559 339.62 135.895H344.742C344.31 136.872 343.791 137.976 343.186 139.207C342.602 140.419 341.922 141.699 341.143 143.048C340.365 144.396 339.49 145.774 338.517 147.181C337.544 148.588 336.464 149.966 335.275 151.314H331.514C331.254 149.712 331.06 148.178 330.93 146.712C330.8 145.246 330.714 143.771 330.671 142.285Z" fill="#505050"/>
</svg>
